<svg width="133" height="118" viewBox="0 0 133 118" fill="none" xmlns="http://www.w3.org/2000/svg">
<g clip-path="url(#clip0_114_37)">
<path d="M115.108 40.0696C123.81 40.0696 130.866 47.1292 130.866 55.8363" stroke="#090B0C" stroke-width="7" stroke-miterlimit="10" stroke-linecap="round"/>
<path d="M121.816 41.5706C121.889 41.0764 121.938 40.5821 121.938 40.0696C121.938 34.3096 117.273 29.648 111.522 29.648C110.01 29.648 108.577 29.9774 107.278 30.5571C105.851 21.1178 97.704 13.8813 87.8678 13.8813C84.4467 13.8813 81.233 14.7599 78.434 16.2975C76.4643 12.0203 73.2872 8.41418 69.3478 5.90639C69.488 5.99792 69.6283 6.08334 69.7685 6.17487C67.7562 5.63182 63.9022 3.55725 61.719 3.52064C48.8398 3.30709 41.6989 11.4528 40.2963 22.2771C38.7413 21.8561 37.107 21.6304 35.4178 21.6304C25.0937 21.6304 16.721 30.0079 16.721 40.3381C16.721 42.0343 16.9527 43.6818 17.3735 45.2438C12.5255 47.9346 11.0741 53.7312 11.6108 57.8254C12.7206 66.3494 22.0508 70.3582 25.5328 71.603C26.417 71.7555 23.3862 71.603 24.3132 71.603H115.102C123.804 71.603 130.86 64.5433 130.86 55.8363C130.86 49.5333 127.158 44.0906 121.816 41.5706Z" fill="url(#paint0_linear_114_37)"/>
<path d="M124.072 40.3564C124.072 40.2649 124.072 40.1733 124.072 40.0818C124.072 33.1564 118.444 27.5246 111.523 27.5246C110.626 27.5246 109.736 27.6222 108.87 27.8114C106.327 18.5063 97.6981 11.7579 87.8679 11.7579C84.953 11.7579 82.0564 12.3498 79.3855 13.4786C74.7326 5.22302 65.9147 0 56.3529 0C45.4372 0 35.8083 6.59589 31.814 16.5965C30.6554 16.4013 29.4845 16.2975 28.3137 16.2975C16.8309 16.2975 7.48252 25.6453 7.48252 37.1408C7.48252 38.4466 7.60448 39.7523 7.84841 41.0337C2.96991 44.3469 0.00622559 49.8872 0.00622559 55.8485C0.00622559 65.721 8.03135 73.7508 17.8981 73.7508H115.114C124.981 73.7508 133.006 65.721 133.006 55.8485C133.006 49.4601 129.549 43.5353 124.079 40.3564H124.072ZM115.108 69.4796H17.892C10.3791 69.4796 4.26881 63.3657 4.26881 55.8485C4.26881 51.6872 6.17752 47.8004 9.35464 45.2377C10.7023 47.7333 12.7879 49.7712 15.5076 50.7658C14.4588 48.2275 13.4404 45.7258 12.7147 43.1387L12.7696 43.1082L12.3305 41.4913C12.2513 41.1862 12.1781 40.8811 12.1171 40.576C12.0988 40.4723 12.0744 40.3747 12.0561 40.271C11.8549 39.2398 11.7512 38.1903 11.7512 37.1408C11.7512 28.0066 19.1787 20.5687 28.3137 20.5687C29.076 20.5687 29.8382 20.6236 30.5883 20.7273C30.1492 22.5822 29.9175 24.4982 29.9175 26.4385C29.7651 40.4601 42.2357 52.7 56.3529 50.7536C38.9122 48.0262 31.7896 33.1076 34.9972 20.4284L35.2229 19.7267C38.1561 10.4827 46.6507 4.26506 56.3529 4.26506C64.9817 4.26506 72.891 9.34164 76.501 17.1945L77.4584 19.2751L79.4647 18.1707C82.0259 16.7613 84.9286 16.023 87.8679 16.023C96.3504 16.023 103.711 22.265 105.113 30.5937C105.967 35.835 104.662 41.4791 100.564 46.2323C97.4603 49.7956 93.0087 52.279 87.8679 53.1699C90.4413 53.6336 93.1794 53.4261 95.7833 52.6451C104.022 50.2106 109.663 42.077 109.632 33.5286C109.638 33.0283 109.62 32.5279 109.583 32.0276C110.218 31.8751 110.864 31.7896 111.516 31.7896C115.681 31.7896 119.133 34.8893 119.706 38.8981C116.755 38.416 113.669 39.3496 112.077 42.2235C115.511 42.2235 118.334 42.8398 121.231 43.6757C125.792 45.9821 128.725 50.7109 128.725 55.8424C128.725 63.3596 122.615 69.4735 115.102 69.4735L115.108 69.4796Z" fill="#090B0C"/>
<path d="M67.4269 59.1556C77.5803 54.3109 79.8305 41.0642 70.7931 34.1449C68.0977 32.1069 64.6218 30.9537 60.7251 30.9537C64.3474 29.111 68.9149 29.3856 72.5494 31.2832C78.3853 34.212 81.7026 41.2899 80.3671 47.6723C79.2634 53.8166 73.7385 59.1678 67.4208 59.1495L67.4269 59.1556Z" fill="#090B0C"/>
<path d="M36.5217 103.923C47.9995 103.923 57.304 94.6135 57.304 83.129C57.304 71.6446 47.9995 62.3346 36.5217 62.3346C25.0439 62.3346 15.7393 71.6446 15.7393 83.129C15.7393 94.6135 25.0439 103.923 36.5217 103.923Z" fill="#D6DEEA"/>
<path d="M96.4722 103.923C107.95 103.923 117.255 94.6135 117.255 83.129C117.255 71.6446 107.95 62.3346 96.4722 62.3346C84.9944 62.3346 75.6898 71.6446 75.6898 83.129C75.6898 94.6135 84.9944 103.923 96.4722 103.923Z" fill="#D6DEEA"/>
<path d="M126.213 70.7365H119.804C115.364 62.3895 106.583 56.7027 96.4722 56.7027C87.5385 56.7027 79.6414 61.1447 74.8605 67.942C72.1529 66.9291 69.3478 66.4166 66.4939 66.4166C63.64 66.4166 60.8348 66.9291 58.1273 67.942C53.3463 61.1447 45.4554 56.7027 36.5155 56.7027C26.4048 56.7027 17.6236 62.3895 13.1841 70.7365H6.775C4.96996 70.7365 3.50641 72.2009 3.50641 74.007C3.50641 75.9108 5.04923 77.4484 6.94575 77.4484H10.7205C10.318 79.2789 10.1046 81.1765 10.1046 83.129C10.1046 97.7242 21.9288 109.555 36.5155 109.555C51.1022 109.555 62.9265 97.7242 62.9265 83.129C62.9265 79.9012 62.3472 76.8138 61.2922 73.9582C64.7071 72.8782 68.2806 72.8782 71.6956 73.9582C70.6406 76.8138 70.0613 79.9073 70.0613 83.129C70.0613 97.7242 81.8855 109.555 96.4722 109.555C111.059 109.555 122.883 97.7242 122.883 83.129C122.883 81.1765 122.664 79.2789 122.267 77.4484H126.042C127.945 77.4484 129.481 75.9047 129.481 74.007C129.481 72.1094 128.018 70.7365 126.213 70.7365ZM36.5216 101.623C26.3134 101.623 18.0382 93.3432 18.0382 83.129C18.0382 72.9148 26.3134 64.6349 36.5216 64.6349C46.7299 64.6349 55.005 72.9148 55.005 83.129C55.005 93.3432 46.7299 101.623 36.5216 101.623ZM96.4722 101.623C86.264 101.623 77.9888 93.3432 77.9888 83.129C77.9888 72.9148 86.264 64.6349 96.4722 64.6349C106.68 64.6349 114.956 72.9148 114.956 83.129C114.956 93.3432 106.68 101.623 96.4722 101.623Z" fill="#090B0C"/>
<path d="M40.8269 89.3954C40.3879 89.3954 39.9671 89.4747 39.5768 89.609C40.1378 89.908 40.522 90.4876 40.522 91.1649C40.522 92.1412 39.7293 92.9283 38.7597 92.9283C38.0828 92.9283 37.5035 92.5439 37.2046 91.9825C37.0705 92.373 36.9912 92.794 36.9912 93.2334C36.9912 95.3567 38.7109 97.0713 40.8269 97.0713C42.943 97.0713 44.6626 95.3506 44.6626 93.2334C44.6626 91.1161 42.943 89.3954 40.8269 89.3954Z" fill="#090B0C"/>
<path d="M92.1731 89.3954C91.7341 89.3954 91.3133 89.4747 90.923 89.609C91.484 89.908 91.8682 90.4876 91.8682 91.1649C91.8682 92.1412 91.0755 92.9283 90.1059 92.9283C89.429 92.9283 88.8496 92.5439 88.5508 91.9825C88.4167 92.373 88.3374 92.794 88.3374 93.2334C88.3374 95.3567 90.0571 97.0713 92.1731 97.0713C94.2892 97.0713 96.0088 95.3506 96.0088 93.2334C96.0088 91.1161 94.2892 89.3954 92.1731 89.3954Z" fill="#090B0C"/>
<path d="M22.191 83.129C19.0627 74.965 28.3562 65.6478 36.5216 68.7901C34.6495 69.5589 33.0457 70.3094 31.5882 71.2125C27.0085 73.9948 24.1485 78.0891 22.191 83.129Z" fill="#090B0C" fill-opacity="0.74"/>
<path d="M81.6782 83.129C78.5499 74.965 87.8434 65.6478 96.0088 68.7901C94.1366 69.5589 92.5328 70.3094 91.0754 71.2125C86.4957 73.9948 83.6357 78.0891 81.6782 83.129Z" fill="#090B0C" fill-opacity="0.74"/>
<path d="M77.1838 105.913C77.1838 105.913 77.1716 105.961 77.1594 105.98L76.7631 106.938C76.1533 108.17 75.4642 109.354 74.6104 110.385C73.7506 111.392 72.842 112.356 71.8236 113.088C71.3479 113.509 70.8052 113.796 70.3174 114.144C69.8112 114.461 69.2868 114.717 68.7867 114.992C68.2684 115.212 67.7744 115.456 67.2866 115.639C66.7926 115.803 66.3231 115.986 65.8657 116.121C65.4084 116.243 64.9693 116.34 64.5668 116.462C64.1644 116.542 63.7924 116.603 63.4448 116.664C62.7557 116.804 62.1581 116.81 61.78 116.859C61.3897 116.902 61.1824 116.926 61.1824 116.926C61.1824 116.926 61.3775 116.999 61.7495 117.14C61.9324 117.207 62.1642 117.286 62.4325 117.378C62.5666 117.42 62.7069 117.481 62.8655 117.524C63.0301 117.561 63.2009 117.591 63.3838 117.634C63.7497 117.707 64.1644 117.799 64.6217 117.878C65.073 117.927 65.5669 117.957 66.0975 118C66.628 118.03 67.1951 117.976 67.7988 117.957C68.4025 117.921 69.0246 117.786 69.6892 117.689C70.3356 117.536 71.0186 117.353 71.7077 117.121C72.3785 116.853 73.1042 116.603 73.7811 116.218C75.1898 115.535 76.5374 114.528 77.7998 113.344C78.1047 113.033 78.4035 112.716 78.7145 112.405C79.0133 112.081 79.2694 111.715 79.5499 111.361L79.9646 110.824L80.3305 110.251C80.5683 109.86 80.8183 109.476 81.0318 109.073C81.1171 108.896 81.2025 108.719 81.2879 108.542L77.2082 105.913H77.1838Z" fill="#090B0C"/>
</g>
<defs>
<linearGradient id="paint0_linear_114_37" x1="38.723" y1="16.1694" x2="60.3924" y2="65.5836" gradientUnits="userSpaceOnUse">
<stop stop-color="#818CF8"/>
<stop offset="1" stop-color="#4F46E5"/>
</linearGradient>
<clipPath id="clip0_114_37">
<rect width="133" height="118" fill="white"/>
</clipPath>
</defs>
</svg>
